<?xml version="1.0" encoding="utf-8" standalone="yes"?>
<!DOCTYPE svg PUBLIC "-//W3C//DTD SVG 1.1//EN" "http://www.w3.org/Graphics/SVG/1.1/DTD/svg11.dtd">
<svg width="849" height="399" viewBox="0 0 849 399" style="fill:none;stroke:none;fill-rule:evenodd;clip-rule:evenodd;stroke-linecap:round;stroke-linejoin:round;stroke-miterlimit:1.5;" version="1.1" xmlns="http://www.w3.org/2000/svg" xmlns:xlink="http://www.w3.org/1999/xlink"><style id="fontImports">@import url("https://fonts.googleapis.com/css2?family=Roboto:wght@400;700&amp;display=block");</style><g id="items" style="isolation: isolate"><g id="blend" style="mix-blend-mode:normal"><g id="g-root--1.cu_sy_1uu9o4kk0v7rj-fill" data-item-order="999881513" data-item-id="-1.cu_sy_1uu9o4kk0v7rj" data-item-class="Part Fill Stroke ColorStrokeBlack" data-item-index="-1" data-renderer-id="0" transform="translate(359.7469177246094, 3)"></g><g id="g-root-3.line_sy_1qeg604k0v8js-fill" data-item-order="999881520" data-item-id="3.line_sy_1qeg604k0v8js" data-item-class="Curve Stroke Part Indexed ColorFillBlack" data-item-index="3" data-renderer-id="0" transform="translate(251.25540161132812, 220.2659912109375)"></g><g id="g-root-2.line_sy_1lz94ysk0v669-fill" data-item-order="999881526" data-item-id="2.line_sy_1lz94ysk0v669" data-item-class="Curve Stroke Part Indexed ColorFillBlack" data-item-index="2" data-renderer-id="0" transform="translate(251.11386108398438, 189.2279052734375)"></g><g id="g-root-1.line_sy_1lz94ysk0v66a-fill" data-item-order="999881532" data-item-id="1.line_sy_1lz94ysk0v66a" data-item-class="Curve Stroke Part Indexed Indexed_1 ColorFillBlack" data-item-index="1" data-renderer-id="0" transform="translate(251.11395263671875, 80.594970703125)"></g><g id="g-root-idea_1ur5h0kk10t1c-fill" data-item-order="1000000000" data-item-id="idea_1ur5h0kk10t1c" data-item-class="Icon Stroke Indexed Indexed_1" data-item-index="1" data-renderer-id="0" transform="translate(173.51898193359375, 49.5570068359375)"></g><g id="g-root-tx_communic_hydvtwk10s98-fill" data-item-order="1000000000" data-item-id="tx_communic_hydvtwk10s98" data-item-class="Label Stroke Indexed Indexed_1 ColorStrokeGray" data-item-index="1" data-renderer-id="0" transform="translate(2, 68.594970703125)"><g id="tx_communic_hydvtwk10s98-fill" stroke="none" fill="#A3A3A3"><g><text style="font: 20px Roboto, sans-serif; white-space: pre;" font-size="20px" font-family="Roboto, sans-serif"><tspan x="22.42" y="34" dominant-baseline="ideographic">Communication</tspan></text></g></g></g><g id="g-root-tx_resource_v97x44k10tu3-fill" data-item-order="1000000000" data-item-id="tx_resource_v97x44k10tu3" data-item-class="Label Stroke Indexed ColorStrokeGray" data-item-index="2" data-renderer-id="0" transform="translate(62, 165.2279052734375)"><g id="tx_resource_v97x44k10tu3-fill" stroke="none" fill="#A3A3A3"><g><text style="font: 20px Roboto, sans-serif; white-space: pre;" font-size="20px" font-family="Roboto, sans-serif"><tspan x="20.69" y="34" dominant-baseline="ideographic">Resource </tspan><tspan x="14.66" y="58" dominant-baseline="ideographic">Allocation</tspan></text></g></g></g><g id="g-root-scal_zoey5gk0o83w-fill" data-item-order="1000000000" data-item-id="scal_zoey5gk0o83w" data-item-class="Icon Stroke Indexed" data-item-index="2" data-renderer-id="0" transform="translate(173.51898193359375, 158.18994140625)"></g><g id="g-root-arro_1ulj42sk0ikg2-fill" data-item-order="1000000000" data-item-id="arro_1ulj42sk0ikg2" data-item-class="Icon Stroke" data-item-index="none" data-renderer-id="0" transform="translate(592.5318603515625, 158.18994140625)"></g><g id="g-root-tx_efficien_1lvigrok10tu1-fill" data-item-order="1000000000" data-item-id="tx_efficien_1lvigrok10tu1" data-item-class="Label Stroke ColorStrokeGray" data-item-index="none" data-renderer-id="0" transform="translate(670.1268310546875, 165.2279052734375)"><g id="tx_efficien_1lvigrok10tu1-fill" stroke="none" fill="#A3A3A3"><g><text style="font: 20px Roboto, sans-serif; white-space: pre;" font-size="20px" font-family="Roboto, sans-serif"><tspan x="12" y="34" dominant-baseline="ideographic">Efficient Project </tspan><tspan x="12" y="58" dominant-baseline="ideographic">Management</tspan></text></g></g></g><g id="g-root-tx_timemana_18kofhgk10s96-fill" data-item-order="1000000000" data-item-id="tx_timemana_18kofhgk10s96" data-item-class="Label Stroke Indexed ColorStrokeGray" data-item-index="3" data-renderer-id="0" transform="translate(26, 273.86083984375)"><g id="tx_timemana_18kofhgk10s96-fill" stroke="none" fill="#A3A3A3"><g><text style="font: 20px Roboto, sans-serif; white-space: pre;" font-size="20px" font-family="Roboto, sans-serif"><tspan x="95.08" y="34" dominant-baseline="ideographic">Time </tspan><tspan x="22.23" y="58" dominant-baseline="ideographic">Management</tspan></text></g></g></g><g id="g-root-hand_1hgbckkk0sd8k-fill" data-item-order="1000000000" data-item-id="hand_1hgbckkk0sd8k" data-item-class="Icon Stroke Indexed" data-item-index="3" data-renderer-id="0" transform="translate(173.51898193359375, 266.8228759765625)"></g><g id="g-root--1.cu_sy_1uu9o4kk0v7rj-stroke" data-item-order="999881513" data-item-id="-1.cu_sy_1uu9o4kk0v7rj" data-item-class="Part Fill Stroke ColorStrokeBlack" data-item-index="-1" data-renderer-id="0" transform="translate(359.7469177246094, 3)"><g id="-1.cu_sy_1uu9o4kk0v7rj-stroke" fill="none" stroke-linecap="round" stroke-linejoin="round" stroke-miterlimit="4" stroke="#666666" stroke-width="2"><g><path d="M 82.120117 382.455872C 101.503586 382.455872 134.151932 299.078766 134.151932 196.227936C 134.151932 93.377083 101.503586 10.000004 82.120117 10.000004C 101.529991 10.009703 117.264313 93.630302 117.264313 196.227936C 117.264313 298.825531 101.529991 382.446136 82.120117 382.455872ZM 82.119209 382.455872C 101.529198 382.446136 117.263527 298.825531 117.263527 196.227936C 117.263527 93.630302 101.529198 10.009703 82.119209 10.000004L 64.261375 10.000004C 82.500465 16.680803 96.905464 97.752022 96.905464 196.227936C 96.905464 294.703979 81.623512 375.775055 63.384422 382.455872L 82.119209 382.455872ZM 96.906372 196.227936C 96.906372 294.703979 81.62442 375.775055 63.38533 382.455872L 61.809498 382.455872C 42.426151 382.455872 9.999998 299.078766 9.999998 196.227936C 9.999998 93.377083 42.426151 10.000004 61.809498 10.000004C 62.634079 10.000004 64.262283 10.000004 64.262283 10.000004C 82.501373 16.680803 96.906372 97.752022 96.906372 196.227936Z"></path></g></g></g><g id="g-root-3.line_sy_1qeg604k0v8js-stroke" data-item-order="999881520" data-item-id="3.line_sy_1qeg604k0v8js" data-item-class="Curve Stroke Part Indexed ColorFillBlack" data-item-index="3" data-renderer-id="0" transform="translate(251.25540161132812, 220.2659912109375)"><g id="3.line_sy_1qeg604k0v8js-stroke" fill="none" stroke-linecap="round" stroke-linejoin="round" stroke-miterlimit="4" stroke="#F99539" stroke-width="2"><g><path d="M 326.19061 10.864136L 165.05061 87.594136L 10.00061 87.594136"></path><path d="M 323.60061 19.264136L 326.60061 10.664136L 318.00061 7.564136" stroke-dasharray="none"></path></g></g></g><g id="g-root-2.line_sy_1lz94ysk0v669-stroke" data-item-order="999881526" data-item-id="2.line_sy_1lz94ysk0v669" data-item-class="Curve Stroke Part Indexed ColorFillBlack" data-item-index="2" data-renderer-id="0" transform="translate(251.11386108398438, 189.2279052734375)"><g id="2.line_sy_1lz94ysk0v669-stroke" fill="none" stroke-linecap="round" stroke-linejoin="round" stroke-miterlimit="4" stroke="#44E095" stroke-width="2"><g><path d="M 318.382106 10.002075L 165.192106 10.002075L 10.002106 10.002075"></path><path d="M 312.402106 16.502075L 318.902106 10.002075L 312.402106 3.502075" stroke-dasharray="none"></path></g></g></g><g id="g-root-1.line_sy_1lz94ysk0v66a-stroke" data-item-order="999881532" data-item-id="1.line_sy_1lz94ysk0v66a" data-item-class="Curve Stroke Part Indexed Indexed_1 ColorFillBlack" data-item-index="1" data-renderer-id="0" transform="translate(251.11395263671875, 80.594970703125)"><g id="1.line_sy_1lz94ysk0v66a-stroke" fill="none" stroke-linecap="round" stroke-linejoin="round" stroke-miterlimit="4" stroke="#F669BE" stroke-width="2"><g><path d="M 326.332075 86.734995L 165.192075 9.994995L 10.002075 9.994995"></path><path d="M 318.102075 89.994995L 326.802075 86.994995L 323.702075 78.294995" stroke-dasharray="none"></path></g></g></g><g id="g-root-idea_1ur5h0kk10t1c-stroke" data-item-order="1000000000" data-item-id="idea_1ur5h0kk10t1c" data-item-class="Icon Stroke Indexed Indexed_1" data-item-index="1" data-renderer-id="0" transform="translate(173.51898193359375, 49.5570068359375)"><g id="idea_1ur5h0kk10t1c-stroke" fill="none" stroke-linecap="round" stroke-linejoin="round" stroke-miterlimit="4" stroke="#F669BE" stroke-width="2"><g><path d="M 70.78273 29.398743C 70.78273 30.827227 69.624718 31.985241 68.196236 31.985241L 35.86499 31.985241L 24.225746 42.331238L 24.225746 31.985241L 13.879749 31.985241C 12.451264 31.985241 11.293249 30.827227 11.293249 29.398743L 11.293249 13.879748C 11.293249 12.451264 12.451264 11.293249 13.879749 11.293249L 68.196236 11.293249C 69.624718 11.293249 70.78273 12.451264 70.78273 13.879748ZM 17.759499 39.74474L 13.879749 39.74474C 12.451264 39.74474 11.293249 40.902752 11.293249 42.331238L 11.293249 57.850231C 11.293249 59.278713 12.451264 60.436729 13.879749 60.436729L 46.210991 60.436729L 57.850235 70.782722L 57.850235 60.436729L 68.196236 60.436729C 69.624718 60.436729 70.78273 59.278713 70.78273 57.850231L 70.78273 42.331238C 70.78273 40.902752 69.624718 39.74474 68.196236 39.74474L 37.158241 39.74474"></path></g></g></g><g id="g-root-tx_communic_hydvtwk10s98-stroke" data-item-order="1000000000" data-item-id="tx_communic_hydvtwk10s98" data-item-class="Label Stroke Indexed Indexed_1 ColorStrokeGray" data-item-index="1" data-renderer-id="0" transform="translate(2, 68.594970703125)"></g><g id="g-root-tx_resource_v97x44k10tu3-stroke" data-item-order="1000000000" data-item-id="tx_resource_v97x44k10tu3" data-item-class="Label Stroke Indexed ColorStrokeGray" data-item-index="2" data-renderer-id="0" transform="translate(62, 165.2279052734375)"></g><g id="g-root-scal_zoey5gk0o83w-stroke" data-item-order="1000000000" data-item-id="scal_zoey5gk0o83w" data-item-class="Icon Stroke Indexed" data-item-index="2" data-renderer-id="0" transform="translate(173.51898193359375, 158.18994140625)"><g id="scal_zoey5gk0o83w-stroke" fill="none" stroke-linecap="round" stroke-linejoin="round" stroke-miterlimit="4" stroke="#44E095" stroke-width="2"><g><path d="M 17.394802 34.571739L 43.989185 34.571739C 47.358982 34.571739 50.090736 37.303497 50.090736 40.67329L 50.090736 64.678589C 50.090736 68.049812 47.357822 70.782722 43.986599 70.782722L 17.397387 70.782722C 14.026165 70.782722 11.293249 68.049812 11.293249 64.678589L 11.293249 40.67329C 11.293249 37.303497 14.025007 34.571739 17.394802 34.571739ZM 17.751738 44.917736L 25.518995 44.917736M 35.86499 44.917736L 43.632252 44.917736M 35.86499 57.850231L 43.632252 57.850231M 35.86499 63.023228L 43.632252 63.023228M 21.639246 41.037987L 21.639246 48.797485M 18.897558 57.689869L 24.388695 63.183594M 24.388695 57.697628L 18.902731 63.183594M 50.090736 30.691992L 50.090736 12.586499C 50.090736 11.872257 50.669746 11.293249 51.383987 11.293249L 69.489479 11.293249C 70.20372 11.293249 70.78273 11.872257 70.78273 12.586499L 70.78273 46.210987C 70.78273 46.925228 70.20372 47.504234 69.489479 47.504234L 55.263737 47.504234M 50.090736 19.052746L 55.263737 19.052746M 31.985243 24.225744L 37.158241 24.225744M 50.090736 24.225744L 57.850235 24.225744M 57.850235 47.504234L 57.850235 38.451488C 57.850235 37.737247 58.429245 37.158237 59.143486 37.158237L 64.316483 37.158237C 65.030724 37.158237 65.609734 37.737247 65.609734 38.451488L 65.609734 47.504234M 50.090736 19.052746L 33.278492 19.052746C 32.564251 19.052746 31.985243 19.631754 31.985243 20.345997L 31.985243 28.105494"></path></g></g></g><g id="g-root-arro_1ulj42sk0ikg2-stroke" data-item-order="1000000000" data-item-id="arro_1ulj42sk0ikg2" data-item-class="Icon Stroke" data-item-index="none" data-renderer-id="0" transform="translate(592.5318603515625, 158.18994140625)"><g id="arro_1ulj42sk0ikg2-stroke" fill="none" stroke-linecap="round" stroke-linejoin="round" stroke-miterlimit="4" stroke="#CD6AFB" stroke-width="2"><g><path d="M 54.05584 53.970482C 54.055836 56.946014 56.467983 59.358162 59.443512 59.358162C 62.419044 59.358162 64.831192 56.946014 64.831192 53.970482C 64.831192 50.994949 62.419044 48.582806 59.443512 48.582806C 56.467983 48.582806 54.055836 50.994949 54.055836 53.970482M 55.850864 70.136101L 70.218864 70.136101C 69.358917 66.772514 66.9776 64.003441 63.780678 62.649567C 60.583755 61.295696 56.938004 61.512356 53.923927 63.235325M 17.244783 53.970482C 17.244783 56.946014 19.656929 59.358162 22.63246 59.358162C 25.607992 59.358162 28.020138 56.946014 28.020138 53.970482C 28.020138 50.994949 25.607992 48.582806 22.63246 48.582806C 19.656929 48.582806 17.244783 50.994949 17.244783 53.970482M 26.150099 70.136101L 11.857106 70.136101C 12.713619 66.789223 15.076798 64.030403 18.252441 62.670063C 21.428085 61.309723 25.055565 61.50235 28.069283 63.191357M 54.174816 70.136101C 54.241386 65.386292 51.745529 60.968521 47.642811 58.574196C 43.540092 56.179867 38.466042 56.179867 34.363327 58.574196C 30.260609 60.968521 27.764751 65.386292 27.831324 70.136093ZM 34.163074 41.635468C 37.898628 45.507256 43.641041 46.661922 48.582806 44.534935M 33.084503 45.587639C 33.084503 49.885952 36.568974 53.370419 40.867283 53.370419C 45.165588 53.370419 48.650055 49.885952 48.650055 45.587643C 48.650055 41.289333 45.165588 37.804867 40.867283 37.804867C 36.568974 37.804867 33.084503 41.289333 33.084503 45.587643M 57.814022 42.977863C 57.814022 42.977863 50.054523 35.218365 50.054523 28.752117L 61.693768 28.752117L 41.001778 11.939875L 20.309786 28.752117L 31.94903 28.752117C 31.94903 35.218365 24.189533 42.977863 24.189533 42.977863"></path></g></g></g><g id="g-root-tx_efficien_1lvigrok10tu1-stroke" data-item-order="1000000000" data-item-id="tx_efficien_1lvigrok10tu1" data-item-class="Label Stroke ColorStrokeGray" data-item-index="none" data-renderer-id="0" transform="translate(670.1268310546875, 165.2279052734375)"></g><g id="g-root-tx_timemana_18kofhgk10s96-stroke" data-item-order="1000000000" data-item-id="tx_timemana_18kofhgk10s96" data-item-class="Label Stroke Indexed ColorStrokeGray" data-item-index="3" data-renderer-id="0" transform="translate(26, 273.86083984375)"></g><g id="g-root-hand_1hgbckkk0sd8k-stroke" data-item-order="1000000000" data-item-id="hand_1hgbckkk0sd8k" data-item-class="Icon Stroke Indexed" data-item-index="3" data-renderer-id="0" transform="translate(173.51898193359375, 266.8228759765625)"><g id="hand_1hgbckkk0sd8k-stroke" fill="none" stroke-linecap="round" stroke-linejoin="round" stroke-miterlimit="4" stroke="#F99539" stroke-width="2"><g><path d="M 47.504238 34.548466L 47.504238 24.202467L 19.052748 24.202467L 19.052748 57.824371L 31.985243 57.826954M 55.263737 31.961966L 55.263737 19.029469C 55.263737 17.600985 54.105721 16.44297 52.677238 16.44297L 41.172489 16.44297C 39.801479 13.308517 36.704845 11.283083 33.283665 11.283083C 29.862488 11.283083 26.765852 13.308517 25.394844 16.44297L 13.879749 16.44297C 12.451264 16.44297 11.293249 17.600985 11.293249 19.029469L 11.293249 62.999954C 11.293249 64.428444 12.451264 65.586456 13.879749 65.586456L 34.571743 65.586456M 26.812244 31.961966L 39.74474 31.961966M 26.812244 39.721462L 39.74474 39.721462M 26.812244 47.480961L 34.571743 47.480961M 39.74474 55.240456C 39.744743 63.811363 46.692833 70.759453 55.263737 70.759453C 63.834644 70.759453 70.78273 63.811363 70.78273 55.240459C 70.78273 46.669556 63.834644 39.721462 55.263737 39.721462C 46.692833 39.721462 39.744743 46.669556 39.744743 55.240459ZM 60.436733 55.240456L 55.263737 55.240456L 55.263737 47.480961"></path></g></g></g></g></g></svg>